<svg width="24" height="24" viewBox="0 0 24 24" fill="none" xmlns="http://www.w3.org/2000/svg">
<path d="M17 2H19C19.2652 2 19.5196 2.10536 19.7071 2.29289C19.8946 2.48043 20 2.73478 20 3V4C20 4.26522 19.8946 4.51957 19.7071 4.70711C19.5196 4.89464 19.2652 5 19 5H18C17.7348 5 17.4804 5.10536 17.2929 5.29289C17.1054 5.48043 17 5.73478 17 6V7C17 7.26522 17.1054 7.51957 17.2929 7.70711C17.4804 7.89464 17.7348 8 18 8H20" stroke="#101010" stroke-linecap="round" stroke-linejoin="round"/>
<path d="M11.7246 2.58203C11.9186 2.45397 12.1827 2.47574 12.3535 2.64648L15.5098 5.80273C15.5046 5.86818 15.5 5.93387 15.5 6V7C15.5 7.07295 15.5044 7.14567 15.5107 7.21777L12 3.70703L4.20703 11.5H5C5.27607 11.5 5.49989 11.724 5.5 12V19C5.5 19.3978 5.65821 19.7793 5.93945 20.0605C6.22076 20.3419 6.60218 20.5 7 20.5H17C17.3978 20.5 17.7792 20.3418 18.0605 20.0605C18.3418 19.7793 18.5 19.3978 18.5 19V12C18.5001 11.724 18.7239 11.5 19 11.5H19.793L17.7822 9.48926C17.8544 9.49557 17.927 9.5 18 9.5H19.207L21.3535 11.6465C21.4965 11.7894 21.5392 12.0046 21.4619 12.1914C21.3845 12.3782 21.2022 12.5 21 12.5H19.5V19C19.5 19.663 19.2363 20.2987 18.7676 20.7676C18.2987 21.2364 17.663 21.5 17 21.5H7C6.33696 21.5 5.70126 21.2364 5.23242 20.7676C4.76364 20.2987 4.5 19.663 4.5 19V12.5H3C2.79779 12.5 2.61549 12.3782 2.53809 12.1914C2.46079 12.0046 2.50353 11.7894 2.64648 11.6465L11.6465 2.64648L11.7246 2.58203Z" fill="#101010"/>
</svg>
